<mxfile host="Electron" modified="2023-11-21T19:17:33.898Z" agent="Mozilla/5.0 (X11; Linux x86_64) AppleWebKit/537.36 (KHTML, like Gecko) draw.io/22.0.3 Chrome/114.0.5735.289 Electron/25.8.4 Safari/537.36" etag="Uo3lPM0IRMc8vdEDUv_J" version="22.0.3" type="device">
  <diagram name="Page-1" id="MMmQpq-n5CSltezF1aD_">
    <mxGraphModel dx="1434" dy="839" grid="1" gridSize="10" guides="1" tooltips="1" connect="1" arrows="1" fold="1" page="1" pageScale="1" pageWidth="827" pageHeight="1169" math="0" shadow="0">
      <root>
        <mxCell id="0" />
        <mxCell id="1" parent="0" />
        <mxCell id="k_0b_RPc-4xwPqBRIG1I-1" value="Z80-BUS BRIDGE&lt;br&gt;(245)" style="rounded=0;whiteSpace=wrap;html=1;" vertex="1" parent="1">
          <mxGeometry x="210" y="320" width="120" height="80" as="geometry" />
        </mxCell>
        <mxCell id="k_0b_RPc-4xwPqBRIG1I-2" value="SPI&lt;br&gt;(595)" style="rounded=0;whiteSpace=wrap;html=1;" vertex="1" parent="1">
          <mxGeometry x="210" y="600" width="120" height="80" as="geometry" />
        </mxCell>
        <mxCell id="k_0b_RPc-4xwPqBRIG1I-3" value="Local &lt;br&gt;Address bus" style="rounded=0;whiteSpace=wrap;html=1;fillColor=#e1d5e7;strokeColor=#9673a6;" vertex="1" parent="1">
          <mxGeometry x="120" y="480" width="600" height="40" as="geometry" />
        </mxCell>
        <mxCell id="k_0b_RPc-4xwPqBRIG1I-5" value="Z80&lt;br&gt;Address bus" style="rounded=0;whiteSpace=wrap;html=1;fillColor=#fff2cc;strokeColor=#d6b656;" vertex="1" parent="1">
          <mxGeometry x="120" y="200" width="600" height="40" as="geometry" />
        </mxCell>
        <mxCell id="k_0b_RPc-4xwPqBRIG1I-6" value="COUNTERS&lt;br&gt;(590)" style="rounded=0;whiteSpace=wrap;html=1;" vertex="1" parent="1">
          <mxGeometry x="360" y="600" width="120" height="80" as="geometry" />
        </mxCell>
        <mxCell id="k_0b_RPc-4xwPqBRIG1I-7" value="RIO DECODER &lt;br&gt;(245)" style="rounded=0;whiteSpace=wrap;html=1;" vertex="1" parent="1">
          <mxGeometry x="510" y="600" width="120" height="80" as="geometry" />
        </mxCell>
        <mxCell id="k_0b_RPc-4xwPqBRIG1I-8" value="A&lt;br&gt;&lt;br&gt;&lt;br&gt;B" style="text;html=1;strokeColor=none;fillColor=none;align=center;verticalAlign=middle;whiteSpace=wrap;rounded=0;" vertex="1" parent="1">
          <mxGeometry x="210" y="345" width="20" height="30" as="geometry" />
        </mxCell>
        <mxCell id="k_0b_RPc-4xwPqBRIG1I-9" value="A0-15" style="shape=flexArrow;endArrow=classic;html=1;rounded=0;entryX=0.25;entryY=1;entryDx=0;entryDy=0;exitX=0.5;exitY=0;exitDx=0;exitDy=0;fontStyle=1;fillColor=#f8cecc;strokeColor=#b85450;" edge="1" parent="1" source="k_0b_RPc-4xwPqBRIG1I-2" target="k_0b_RPc-4xwPqBRIG1I-3">
          <mxGeometry width="50" height="50" relative="1" as="geometry">
            <mxPoint x="170" y="570" as="sourcePoint" />
            <mxPoint x="220" y="520" as="targetPoint" />
          </mxGeometry>
        </mxCell>
        <mxCell id="k_0b_RPc-4xwPqBRIG1I-10" value="A0-12" style="shape=flexArrow;endArrow=classic;html=1;rounded=0;entryX=0.5;entryY=1;entryDx=0;entryDy=0;exitX=0.5;exitY=0;exitDx=0;exitDy=0;fontStyle=1;fillColor=#f8cecc;strokeColor=#b85450;" edge="1" parent="1" source="k_0b_RPc-4xwPqBRIG1I-6" target="k_0b_RPc-4xwPqBRIG1I-3">
          <mxGeometry width="50" height="50" relative="1" as="geometry">
            <mxPoint x="450" y="590" as="sourcePoint" />
            <mxPoint x="470" y="550" as="targetPoint" />
          </mxGeometry>
        </mxCell>
        <mxCell id="k_0b_RPc-4xwPqBRIG1I-11" value="A0-15" style="shape=flexArrow;endArrow=classic;startArrow=classic;html=1;rounded=0;exitX=0.5;exitY=1;exitDx=0;exitDy=0;entryX=0.25;entryY=0;entryDx=0;entryDy=0;fontStyle=1;fillColor=#ffe6cc;strokeColor=#d79b00;" edge="1" parent="1" source="k_0b_RPc-4xwPqBRIG1I-1" target="k_0b_RPc-4xwPqBRIG1I-3">
          <mxGeometry width="100" height="100" relative="1" as="geometry">
            <mxPoint x="330" y="510" as="sourcePoint" />
            <mxPoint x="220" y="470" as="targetPoint" />
          </mxGeometry>
        </mxCell>
        <mxCell id="k_0b_RPc-4xwPqBRIG1I-12" value="CACHE 0-3 &amp;gt;&amp;gt; A12-13" style="shape=flexArrow;endArrow=classic;html=1;rounded=0;entryX=0.75;entryY=1;entryDx=0;entryDy=0;exitX=0.5;exitY=0;exitDx=0;exitDy=0;fontStyle=1;fillColor=#f8cecc;strokeColor=#b85450;" edge="1" parent="1" source="k_0b_RPc-4xwPqBRIG1I-7" target="k_0b_RPc-4xwPqBRIG1I-3">
          <mxGeometry width="50" height="50" relative="1" as="geometry">
            <mxPoint x="580" y="620" as="sourcePoint" />
            <mxPoint x="580" y="540" as="targetPoint" />
          </mxGeometry>
        </mxCell>
        <mxCell id="k_0b_RPc-4xwPqBRIG1I-13" value="A0-15" style="shape=flexArrow;endArrow=classic;startArrow=classic;html=1;rounded=0;exitX=0.25;exitY=1;exitDx=0;exitDy=0;fontStyle=1;fillColor=#ffe6cc;strokeColor=#d79b00;" edge="1" parent="1" source="k_0b_RPc-4xwPqBRIG1I-5" target="k_0b_RPc-4xwPqBRIG1I-1">
          <mxGeometry width="100" height="100" relative="1" as="geometry">
            <mxPoint x="280" y="410" as="sourcePoint" />
            <mxPoint x="280" y="490" as="targetPoint" />
          </mxGeometry>
        </mxCell>
        <mxCell id="k_0b_RPc-4xwPqBRIG1I-14" value="Z80 CPU" style="rounded=0;whiteSpace=wrap;html=1;" vertex="1" parent="1">
          <mxGeometry x="210" y="40" width="120" height="80" as="geometry" />
        </mxCell>
        <mxCell id="k_0b_RPc-4xwPqBRIG1I-15" value="A0-15" style="shape=flexArrow;endArrow=classic;html=1;rounded=0;exitX=0.5;exitY=1;exitDx=0;exitDy=0;entryX=0.25;entryY=0;entryDx=0;entryDy=0;fontStyle=1;fillColor=#f8cecc;strokeColor=#b85450;" edge="1" parent="1" source="k_0b_RPc-4xwPqBRIG1I-14" target="k_0b_RPc-4xwPqBRIG1I-5">
          <mxGeometry width="50" height="50" relative="1" as="geometry">
            <mxPoint x="520" y="480" as="sourcePoint" />
            <mxPoint x="570" y="430" as="targetPoint" />
          </mxGeometry>
        </mxCell>
        <mxCell id="k_0b_RPc-4xwPqBRIG1I-16" value="RIO&lt;br&gt;ROM" style="rounded=0;whiteSpace=wrap;html=1;" vertex="1" parent="1">
          <mxGeometry x="360" y="40" width="120" height="80" as="geometry" />
        </mxCell>
        <mxCell id="k_0b_RPc-4xwPqBRIG1I-17" value="RIO&lt;br&gt;IO Decoder" style="rounded=0;whiteSpace=wrap;html=1;" vertex="1" parent="1">
          <mxGeometry x="510" y="40" width="120" height="80" as="geometry" />
        </mxCell>
        <mxCell id="k_0b_RPc-4xwPqBRIG1I-18" value="A0-15" style="shape=flexArrow;endArrow=classic;html=1;rounded=0;entryX=0.5;entryY=1;entryDx=0;entryDy=0;fontStyle=1;fillColor=#d5e8d4;strokeColor=#82b366;" edge="1" parent="1" source="k_0b_RPc-4xwPqBRIG1I-5" target="k_0b_RPc-4xwPqBRIG1I-16">
          <mxGeometry width="50" height="50" relative="1" as="geometry">
            <mxPoint x="520" y="480" as="sourcePoint" />
            <mxPoint x="570" y="430" as="targetPoint" />
          </mxGeometry>
        </mxCell>
        <mxCell id="k_0b_RPc-4xwPqBRIG1I-19" value="A0-15" style="shape=flexArrow;endArrow=classic;html=1;rounded=0;entryX=0.5;entryY=1;entryDx=0;entryDy=0;exitX=0.75;exitY=0;exitDx=0;exitDy=0;fontStyle=1;fillColor=#d5e8d4;strokeColor=#82b366;" edge="1" parent="1" source="k_0b_RPc-4xwPqBRIG1I-5" target="k_0b_RPc-4xwPqBRIG1I-17">
          <mxGeometry width="50" height="50" relative="1" as="geometry">
            <mxPoint x="430" y="210" as="sourcePoint" />
            <mxPoint x="430" y="130" as="targetPoint" />
          </mxGeometry>
        </mxCell>
        <mxCell id="k_0b_RPc-4xwPqBRIG1I-21" value="CACHE&lt;br&gt;Status" style="rounded=0;whiteSpace=wrap;html=1;" vertex="1" parent="1">
          <mxGeometry x="360" y="320" width="120" height="80" as="geometry" />
        </mxCell>
        <mxCell id="k_0b_RPc-4xwPqBRIG1I-22" value="CACHE&lt;br&gt;Data (banks)" style="rounded=0;whiteSpace=wrap;html=1;" vertex="1" parent="1">
          <mxGeometry x="510" y="320" width="120" height="80" as="geometry" />
        </mxCell>
        <mxCell id="k_0b_RPc-4xwPqBRIG1I-23" value="A0-15" style="shape=flexArrow;endArrow=classic;html=1;rounded=0;entryX=0.5;entryY=1;entryDx=0;entryDy=0;fontStyle=1;fillColor=#d5e8d4;strokeColor=#82b366;exitX=0.5;exitY=0;exitDx=0;exitDy=0;" edge="1" parent="1" source="k_0b_RPc-4xwPqBRIG1I-3" target="k_0b_RPc-4xwPqBRIG1I-21">
          <mxGeometry width="50" height="50" relative="1" as="geometry">
            <mxPoint x="419.5" y="480" as="sourcePoint" />
            <mxPoint x="419.5" y="400" as="targetPoint" />
          </mxGeometry>
        </mxCell>
        <mxCell id="k_0b_RPc-4xwPqBRIG1I-25" value="A0-15" style="shape=flexArrow;endArrow=classic;html=1;rounded=0;entryX=0.5;entryY=1;entryDx=0;entryDy=0;fontStyle=1;fillColor=#d5e8d4;strokeColor=#82b366;exitX=0.75;exitY=0;exitDx=0;exitDy=0;" edge="1" parent="1" source="k_0b_RPc-4xwPqBRIG1I-3" target="k_0b_RPc-4xwPqBRIG1I-22">
          <mxGeometry width="50" height="50" relative="1" as="geometry">
            <mxPoint x="580" y="480" as="sourcePoint" />
            <mxPoint x="579.8" y="410" as="targetPoint" />
          </mxGeometry>
        </mxCell>
      </root>
    </mxGraphModel>
  </diagram>
</mxfile>
